<svg id="visual" viewBox="0 0 1080 200" width="1080" height="200" xmlns="http://www.w3.org/2000/svg"
  xmlns:xlink="http://www.w3.org/1999/xlink" version="1.1">
  <rect x="0" y="0" width="1080" height="200" fill="#000000"></rect>
  <path
    d="M0 134L25.7 134C51.3 134 102.7 134 154.2 130C205.7 126 257.3 118 308.8 116.3C360.3 114.7 411.7 119.3 463 120C514.3 120.7 565.7 117.3 617 115.2C668.3 113 719.7 112 771.2 110C822.7 108 874.3 105 925.8 104.3C977.3 103.7 1028.7 105.3 1054.3 106.2L1080 107L1080 0L1054.3 0C1028.7 0 977.3 0 925.8 0C874.3 0 822.7 0 771.2 0C719.7 0 668.3 0 617 0C565.7 0 514.3 0 463 0C411.7 0 360.3 0 308.8 0C257.3 0 205.7 0 154.2 0C102.7 0 51.3 0 25.7 0L0 0Z"
    fill="#fa7268"></path>
  <path
    d="M0 110L25.7 104.3C51.3 98.7 102.7 87.3 154.2 82.2C205.7 77 257.3 78 308.8 78C360.3 78 411.7 77 463 80.7C514.3 84.3 565.7 92.7 617 96.7C668.3 100.7 719.7 100.3 771.2 98C822.7 95.7 874.3 91.3 925.8 87.5C977.3 83.7 1028.7 80.3 1054.3 78.7L1080 77L1080 0L1054.3 0C1028.7 0 977.3 0 925.8 0C874.3 0 822.7 0 771.2 0C719.7 0 668.3 0 617 0C565.7 0 514.3 0 463 0C411.7 0 360.3 0 308.8 0C257.3 0 205.7 0 154.2 0C102.7 0 51.3 0 25.7 0L0 0Z"
    fill="#ef5f67"></path>
  <path
    d="M0 59L25.7 63.2C51.3 67.3 102.7 75.7 154.2 76C205.7 76.3 257.3 68.7 308.8 68.5C360.3 68.3 411.7 75.7 463 76.3C514.3 77 565.7 71 617 70.5C668.3 70 719.7 75 771.2 79.5C822.7 84 874.3 88 925.8 86C977.3 84 1028.7 76 1054.3 72L1080 68L1080 0L1054.3 0C1028.7 0 977.3 0 925.8 0C874.3 0 822.7 0 771.2 0C719.7 0 668.3 0 617 0C565.7 0 514.3 0 463 0C411.7 0 360.3 0 308.8 0C257.3 0 205.7 0 154.2 0C102.7 0 51.3 0 25.7 0L0 0Z"
    fill="#e34c67"></path>
  <path
    d="M0 47L25.7 45.5C51.3 44 102.7 41 154.2 39.7C205.7 38.3 257.3 38.7 308.8 43.3C360.3 48 411.7 57 463 58.7C514.3 60.3 565.7 54.7 617 54C668.3 53.3 719.7 57.7 771.2 59.8C822.7 62 874.3 62 925.8 59.3C977.3 56.7 1028.7 51.3 1054.3 48.7L1080 46L1080 0L1054.3 0C1028.7 0 977.3 0 925.8 0C874.3 0 822.7 0 771.2 0C719.7 0 668.3 0 617 0C565.7 0 514.3 0 463 0C411.7 0 360.3 0 308.8 0C257.3 0 205.7 0 154.2 0C102.7 0 51.3 0 25.7 0L0 0Z"
    fill="#d53867"></path>
  <path
    d="M0 31L25.7 29.7C51.3 28.3 102.7 25.7 154.2 24.3C205.7 23 257.3 23 308.8 25.2C360.3 27.3 411.7 31.7 463 33.3C514.3 35 565.7 34 617 32C668.3 30 719.7 27 771.2 27.5C822.7 28 874.3 32 925.8 31.7C977.3 31.3 1028.7 26.7 1054.3 24.3L1080 22L1080 0L1054.3 0C1028.7 0 977.3 0 925.8 0C874.3 0 822.7 0 771.2 0C719.7 0 668.3 0 617 0C565.7 0 514.3 0 463 0C411.7 0 360.3 0 308.8 0C257.3 0 205.7 0 154.2 0C102.7 0 51.3 0 25.7 0L0 0Z"
    fill="#c62368"></path>
</svg>