<svg id="visual" viewBox="0 0 1080 250" width="1080" height="250" xmlns="http://www.w3.org/2000/svg"
  xmlns:xlink="http://www.w3.org/1999/xlink" version="1.1">
  <rect x="0" y="0" width="1080" height="250" fill="#000000"></rect>
  <path
    d="M0 80L25.7 80C51.3 80 102.7 80 154.2 85.2C205.7 90.3 257.3 100.7 308.8 102.8C360.3 105 411.7 99 463 98C514.3 97 565.7 101 617 103.8C668.3 106.7 719.7 108.3 771.2 110.8C822.7 113.3 874.3 116.7 925.8 117.3C977.3 118 1028.7 116 1054.3 115L1080 114L1080 251L1054.3 251C1028.7 251 977.3 251 925.8 251C874.3 251 822.7 251 771.2 251C719.7 251 668.3 251 617 251C565.7 251 514.3 251 463 251C411.7 251 360.3 251 308.8 251C257.3 251 205.7 251 154.2 251C102.7 251 51.3 251 25.7 251L0 251Z"
    fill="#fa7268"></path>
  <path
    d="M0 110L25.7 117.2C51.3 124.3 102.7 138.7 154.2 145.2C205.7 151.7 257.3 150.3 308.8 150.3C360.3 150.3 411.7 151.7 463 147C514.3 142.3 565.7 131.7 617 126.7C668.3 121.7 719.7 122.3 771.2 125.3C822.7 128.3 874.3 133.7 925.8 138.5C977.3 143.3 1028.7 147.7 1054.3 149.8L1080 152L1080 251L1054.3 251C1028.7 251 977.3 251 925.8 251C874.3 251 822.7 251 771.2 251C719.7 251 668.3 251 617 251C565.7 251 514.3 251 463 251C411.7 251 360.3 251 308.8 251C257.3 251 205.7 251 154.2 251C102.7 251 51.3 251 25.7 251L0 251Z"
    fill="#ef5f67"></path>
  <path
    d="M0 175L25.7 169.7C51.3 164.3 102.7 153.7 154.2 153.2C205.7 152.7 257.3 162.3 308.8 162.5C360.3 162.7 411.7 153.3 463 152.3C514.3 151.3 565.7 158.7 617 159.3C668.3 160 719.7 154 771.2 148.5C822.7 143 874.3 138 925.8 140.3C977.3 142.7 1028.7 152.3 1054.3 157.2L1080 162L1080 251L1054.3 251C1028.7 251 977.3 251 925.8 251C874.3 251 822.7 251 771.2 251C719.7 251 668.3 251 617 251C565.7 251 514.3 251 463 251C411.7 251 360.3 251 308.8 251C257.3 251 205.7 251 154.2 251C102.7 251 51.3 251 25.7 251L0 251Z"
    fill="#e34c67"></path>
  <path
    d="M0 188L25.7 190.2C51.3 192.3 102.7 196.7 154.2 198.5C205.7 200.3 257.3 199.7 308.8 193.7C360.3 187.7 411.7 176.3 463 174.2C514.3 172 565.7 179 617 180C668.3 181 719.7 176 771.2 173.3C822.7 170.7 874.3 170.3 925.8 173.5C977.3 176.7 1028.7 183.3 1054.3 186.7L1080 190L1080 251L1054.3 251C1028.7 251 977.3 251 925.8 251C874.3 251 822.7 251 771.2 251C719.7 251 668.3 251 617 251C565.7 251 514.3 251 463 251C411.7 251 360.3 251 308.8 251C257.3 251 205.7 251 154.2 251C102.7 251 51.3 251 25.7 251L0 251Z"
    fill="#d53867"></path>
  <path
    d="M0 209L25.7 210.7C51.3 212.3 102.7 215.7 154.2 217.2C205.7 218.7 257.3 218.3 308.8 215.5C360.3 212.7 411.7 207.3 463 205.3C514.3 203.3 565.7 204.7 617 207.2C668.3 209.7 719.7 213.3 771.2 212.8C822.7 212.3 874.3 207.7 925.8 208.2C977.3 208.7 1028.7 214.3 1054.3 217.2L1080 220L1080 251L1054.3 251C1028.7 251 977.3 251 925.8 251C874.3 251 822.7 251 771.2 251C719.7 251 668.3 251 617 251C565.7 251 514.3 251 463 251C411.7 251 360.3 251 308.8 251C257.3 251 205.7 251 154.2 251C102.7 251 51.3 251 25.7 251L0 251Z"
    fill="#c62368"></path>
</svg>